<?xml version="1.0" encoding="utf-8"?>
<!-- Generator: Adobe Illustrator 25.2.0, SVG Export Plug-In . SVG Version: 6.00 Build 0)  -->
<svg version="1.1" id="Layer_1" xmlns="http://www.w3.org/2000/svg" xmlns:xlink="http://www.w3.org/1999/xlink" x="0px" y="0px"
	 viewBox="0 0 1000 1000" style="enable-background:new 0 0 1000 1000;" xml:space="preserve">
<style type="text/css">
	.st0{fill:#03E0B6;}
	.st1{fill-rule:evenodd;clip-rule:evenodd;}
</style>
<g>
	<path class="st0" d="M242.58,322.39c5.68,16.75,23.86,25.73,40.61,20.05c16.75-5.68,25.73-23.86,20.05-40.61l-9.25-27.3
		c-10.98-32.41-8.69-67.15,6.47-97.83c31.28-63.34,108.25-89.42,171.59-58.14c30.68,15.15,53.63,41.34,64.61,73.75l9.25,27.31
		c5.68,16.75,23.86,25.73,40.61,20.05c16.75-5.68,25.73-23.86,20.05-40.61l-9.25-27.31c-16.47-48.61-50.89-87.9-96.91-110.63
		c-95.01-46.91-210.46-7.79-257.38,87.22c-22.73,46.02-26.17,98.14-9.7,146.75L242.58,322.39z"/>
	<path class="st0" d="M767.69,665.86c-5.68-16.75-23.86-25.73-40.61-20.05c-16.75,5.68-25.73,23.86-20.05,40.61l9.25,27.3
		c10.98,32.41,8.68,67.16-6.47,97.84c-31.28,63.34-108.25,89.42-171.58,58.15c-30.68-15.15-53.63-41.34-64.61-73.75l-9.25-27.31
		c-5.68-16.75-23.86-25.73-40.61-20.05c-16.75,5.68-25.73,23.86-20.06,40.61l9.25,27.31c16.47,48.61,50.89,87.9,96.91,110.63
		c95,46.91,210.46,7.79,257.38-87.22c22.73-46.02,26.17-98.14,9.7-146.75L767.69,665.86z"/>
</g>
<path class="st1" d="M923.93,351.21L923.93,351.21c-22.88-66.4-86.95-107.51-153.91-104.67L607.61,302.5l-43.68-126.79
	C536.06,94.85,447.1,51.48,366.23,79.34l0,0c-80.87,27.86-124.24,116.82-96.37,197.69l41.59,120.72l-120.72,41.59
	c-80.87,27.86-124.23,116.82-96.37,197.69l0,0c27.86,80.87,116.82,124.24,197.69,96.37l120.72-41.6l41.59,120.72
	c27.86,80.87,116.82,124.24,197.69,96.37l0,0c80.86-27.86,124.23-116.82,96.37-197.69l-42.88-124.46l153.66-52.94
	C919.16,496.3,947.89,420.76,923.93,351.21z M415.22,466.27c8.54-17.29,29.48-24.39,46.77-15.85c17.29,8.54,24.38,29.48,15.85,46.77
	c-8.54,17.29-29.48,24.39-46.77,15.85C413.77,504.5,406.68,483.56,415.22,466.27z M509.53,590.73
	c-8.54,17.29-29.48,24.39-46.77,15.85c-17.29-8.54-24.39-29.48-15.85-46.77c8.54-17.29,29.48-24.39,46.77-15.85
	C510.97,552.5,518.07,573.44,509.53,590.73z M508.75,434.58c8.54-17.29,29.48-24.39,46.77-15.85c17.29,8.54,24.38,29.48,15.85,46.77
	c-8.54,17.29-29.48,24.39-46.77,15.85C507.31,472.81,500.22,451.87,508.75,434.58z M603.07,559.03
	c-8.54,17.29-29.48,24.39-46.77,15.85c-17.29-8.54-24.39-29.48-15.85-46.77c8.54-17.29,29.48-24.39,46.77-15.85
	C604.51,520.8,611.6,541.74,603.07,559.03z"/>
</svg>
