<?xml version="1.0" encoding="utf-8"?>
<!-- Generator: Adobe Illustrator 25.2.0, SVG Export Plug-In . SVG Version: 6.00 Build 0)  -->
<svg version="1.1" id="Layer_1" xmlns="http://www.w3.org/2000/svg" xmlns:xlink="http://www.w3.org/1999/xlink" x="0px" y="0px"
	 viewBox="0 0 2000 700" style="enable-background:new 0 0 2000 700;" xml:space="preserve">
<style type="text/css">
	.st0{font-family:'Poppins-SemiBold';}
	.st1{font-size:487.0556px;}
	.st2{font-family:'Poppins-Medium';}
	.st3{font-size:69.9121px;}
	.st4{fill:#03E0B6;}
	.st5{fill-rule:evenodd;clip-rule:evenodd;}
</style>
<text transform="matrix(1 0 0 1 621.8843 463.5449)" class="st0 st1">Tega</text>
<text transform="matrix(1 0 0 1 1867.9541 244.0146)" class="st2 st3">TM</text>
<g>
	<path class="st4" d="M174.66,229.91c3.68,10.86,15.47,16.68,26.33,13c10.86-3.68,16.68-15.47,13-26.33l-6-17.7
		c-7.12-21.01-5.63-43.54,4.19-63.43c20.28-41.06,70.18-57.98,111.25-37.7c19.89,9.82,34.77,26.8,41.89,47.81l6,17.71
		c3.68,10.86,15.47,16.68,26.33,13c10.86-3.68,16.68-15.47,13-26.33l-6-17.7c-10.68-31.52-32.99-56.99-62.83-71.72
		c-61.6-30.42-136.45-5.05-166.87,56.55c-14.73,29.84-16.97,63.63-6.29,95.15L174.66,229.91z"/>
	<path class="st4" d="M515.11,452.59c-3.68-10.86-15.47-16.68-26.33-13c-10.86,3.68-16.68,15.47-13,26.33l6,17.7
		c7.12,21.01,5.63,43.54-4.19,63.43c-20.28,41.06-70.18,57.98-111.25,37.7c-19.89-9.82-34.77-26.81-41.89-47.82l-6-17.7
		c-3.68-10.86-15.47-16.68-26.33-13c-10.86,3.68-16.68,15.47-13,26.33l6,17.7c10.68,31.52,33,56.99,62.83,71.72
		c61.6,30.42,136.45,5.05,166.87-56.55c14.73-29.84,16.97-63.63,6.29-95.15L515.11,452.59z"/>
</g>
<path class="st5" d="M616.41,248.59L616.41,248.59c-14.83-43.05-56.38-69.7-99.79-67.86l-105.3,36.28L383,134.81
	c-18.07-52.43-75.74-80.55-128.17-62.48l0,0c-52.43,18.07-80.55,75.74-62.48,128.17l26.97,78.27l-78.27,26.97
	C88.61,323.8,60.5,381.48,78.56,433.91l0,0c18.07,52.43,75.74,80.55,128.17,62.48L285,469.42l26.97,78.27
	c18.07,52.43,75.74,80.55,128.17,62.48l0,0c52.43-18.06,80.55-75.74,62.48-128.17l-27.8-80.7l99.62-34.33
	C613.32,342.66,631.95,293.69,616.41,248.59z M286.59,323.19c5.53-11.21,19.11-15.81,30.32-10.27
	c11.21,5.54,15.81,19.11,10.27,30.32c-5.54,11.21-19.11,15.81-30.32,10.27C285.65,347.98,281.05,334.4,286.59,323.19z
	 M347.74,403.88c-5.54,11.21-19.11,15.81-30.32,10.27s-15.81-19.11-10.27-30.32s19.11-15.81,30.32-10.27
	C348.67,379.1,353.27,392.67,347.74,403.88z M347.23,302.64c5.53-11.21,19.11-15.81,30.32-10.27c11.21,5.54,15.81,19.11,10.27,30.32
	c-5.54,11.21-19.11,15.81-30.32,10.27C346.3,327.43,341.7,313.85,347.23,302.64z M408.38,383.33
	c-5.54,11.21-19.11,15.81-30.32,10.27c-11.21-5.54-15.81-19.11-10.27-30.32c5.53-11.21,19.11-15.81,30.32-10.27
	C409.32,358.55,413.92,372.12,408.38,383.33z"/>
</svg>
